<svg xmlns="http://www.w3.org/2000/svg" width="96" height="96" viewBox="0 0 96 96">

  <defs>
    <linearGradient id="stone" x1="0" y1="0" x2="0" y2="1">
      <stop offset="0" stop-color="#2a2d34"/>
      <stop offset=".55" stop-color="#151820"/>
      <stop offset="1" stop-color="#090b10"/>
    </linearGradient>
    <linearGradient id="brass" x1="0" y1="0" x2="1" y2="1">
      <stop offset="0" stop-color="#f1d184"/>
      <stop offset=".45" stop-color="#b88f3a"/>
      <stop offset="1" stop-color="#5f4519"/>
    </linearGradient>
  </defs>
  <rect x="4" y="4" width="88" height="88" rx="12" fill="url(#stone)"/>
  <path d="M16 7h64l9 9v64l-9 9H16l-9-9V16z" fill="none" stroke="#3a2a12" stroke-width="7"/>
  <path d="M17 9h62l8 8v62l-8 8H17l-8-8V17z" fill="none" stroke="url(#brass)" stroke-width="3"/>
  <path d="M19 17h58M19 79h58M17 19v58M79 19v58" stroke="#f6dda0" stroke-opacity=".24" stroke-width="1"/>
  <path d="M18 18l10 5-5-10M78 18l-10 5 5-10M18 78l10-5-5 10M78 78l-10-5 5 10" fill="#d6aa50" fill-opacity=".55"/>
  <path d="M28 12h40M28 84h40M12 28v40M84 28v40" stroke="#07080b" stroke-opacity=".55" stroke-width="2"/>

</svg>
